<svg xmlns="http://www.w3.org/2000/svg" preserveAspectRatio="none" viewBox="0 0 1143.58 27.83"><path d="M1143.58 1.7H0V0h1143.58ZM0 1.7h2.94c-.98 0-1.96.23-2.91.23zm1143.58 0v6.8a85.35 85.35 0 0 0-34.47-6.8Zm-105.96 26.08a103.1 103.1 0 0 0-61.39-26.14h126.42a102.87 102.87 0 0 0-65 26.17zm-137.32 0A103.1 103.1 0 0 0 838.9 1.64h122.56a104.75 104.75 0 0 0-61.12 26.14zm-137.32 0c-39.16-34.66-97.92-34.66-136.8 0a103.1 103.1 0 0 0-61.37-26.14h259.34a104.75 104.75 0 0 0-61.12 26.14zm-274.1 0a102.98 102.98 0 0 0-65-26.09h126.19a104.48 104.48 0 0 0-61.12 26.14zm-137.06 0A102.98 102.98 0 0 0 286.83 1.7h129.8c-23.27.8-46.4 9.8-64.7 26.14zm-137.06 0A102.98 102.98 0 0 0 149.78 1.7h129.8a102.66 102.66 0 0 0-64.71 26.14zm-137.05 0A101.68 101.68 0 0 0 15.05 1.7H142.5c-23.28.8-46.4 9.8-64.71 26.14z" fill="%23fbd8c2"/></svg> 

 