
 <svg preserveAspectRatio="xMidYMax slice" xmlns="http://www.w3.org/2000/svg" viewBox="0 0 2000.4 78"><g fill="%23fbd8c2"><path d="M1786 0h125c11 6 21 11 33 13a63 63 0 0012 2 58 58 0 007 0 62 62 0 009-1c9-2 20-7 26-14h2v2a44 44 0 01-2 13c-4 13-14 25-26 30-25 11-55 5-78-3l-44-18c-10-4-20-8-31-7s-23 8-23 19c-7-5-10-12-12-20v-1a36 36 0 012-15z"/><path d="M1572 0h126c10 6 21 11 33 13a63 63 0 0012 2 58 58 0 006 0 62 62 0 0010-1c8-2 19-7 25-14h3a43 43 0 01-2 15l-1 1c-4 13-13 24-25 29-25 11-56 5-78-3l-44-18c-10-4-20-7-32-7s-23 8-23 19c-6-5-10-12-11-21a36 36 0 011-15z"/><path d="M1359 0h125c10 6 21 11 33 13a63 63 0 0012 2 58 58 0 006 0 62 62 0 0010-1c8-2 20-7 25-14h3a43 43 0 01-2 15c-4 13-14 25-26 30-25 11-56 5-78-3l-44-18c-10-4-20-7-31-7s-23 8-23 19c-7-5-11-12-12-21a36 36 0 012-15z"/><path d="M1145 0h125c11 6 21 11 33 13a63 63 0 0012 2 58 58 0 006 0 62 62 0 0010-1c9-2 20-7 26-14h2a43 43 0 01-2 15c-4 13-14 25-26 30-25 11-55 5-78-3l-44-18c-10-4-20-7-31-7s-23 8-23 19c-7-5-11-12-12-21a36 36 0 012-15z"/><path d="M931 0h125c11 6 21 11 33 13a63 63 0 0012 2 58 58 0 007 0 62 62 0 009-1c9-2 20-7 26-14h2a44 44 0 01-2 15c-4 13-14 25-26 30-25 11-55 5-77-3l-44-18c-11-4-21-8-32-7s-23 8-23 19c-7-5-11-13-12-21a36 36 0 012-15z"/><path d="M717 0h125c11 6 22 11 33 13a63 63 0 0012 2 58 58 0 007 0 62 62 0 009-1c9-2 20-7 26-14h3a43 43 0 01-3 15c-4 13-13 25-25 30-26 11-56 5-78-3l-44-18c-11-4-21-8-32-7s-23 8-23 19c-7-5-10-13-11-21a36 36 0 011-15z"/><path d="M503 0h125c11 6 22 11 33 13a62 62 0 0013 2 58 58 0 006 0 62 62 0 009-1c9-2 20-7 26-14h3a43 43 0 01-2 15c-5 13-14 25-26 30-26 11-56 5-78-3l-44-18c-10-4-21-7-32-7s-23 8-23 19c-6-5-10-12-11-21a36 36 0 011-15z"/><path d="M289 0h126c10 6 21 11 32 13a63 63 0 0013 2 58 58 0 006 0 62 62 0 009-1c9-2 20-7 26-14h3a44 44 0 01-2 15c-4 13-14 25-26 30-26 11-56 5-78-3l-44-18c-10-4-21-8-32-7s-23 8-23 19c-6-5-10-13-11-21a36 36 0 011-15z"/><path d="M75 0h126c10 6 21 11 33 13a63 63 0 0012 2 58 58 0 006 0 62 62 0 0010-1c8-2 19-7 25-14h3a43 43 0 01-2 15c-4 13-14 25-26 30-25 11-56 5-78-3l-44-18c-10-4-20-8-32-7s-23 8-23 19c-6-5-10-13-11-21a36 36 0 011-15z"/><path d="M0 50V6a121 121 0 0020 7 63 63 0 0012 2 58 58 0 006 0 62 62 0 0010-1c8-2 20-7 26-14h2a43 43 0 01-2 15c-4 13-14 25-26 30-15 7-32 7-48 5z"/><path d="M0 0h1998v15H0z"/><circle cx="1826.1" cy="44.1" r="14.3"/><circle cx="1979.1" cy="67.1" r="10.9"/><circle cx="1909.7" cy="63.9" r="6.4"/><circle cx="1610.7" cy="44.1" r="14.3"/><circle cx="1763.7" cy="67.1" r="10.9"/><circle cx="1694.3" cy="63.9" r="6.4"/><circle cx="1395.4" cy="44.1" r="14.3"/>
 <circle cx="1548.4" cy="67.1" r="10.9"/><circle cx="1478.9" cy="63.9" r="6.4"/><circle cx="1181.9" cy="44.1" r="14.3"/><circle cx="1333" cy="67.1" r="10.9"/>
 <circle cx="1263.6" cy="63.9" r="6.4"/>
 <circle cx="967.2" cy="44.1" r="14.3"/>
 <circle cx="1117.7" cy="67.1" r="10.9"/>
 <circle cx="1048.2" cy="63.9" r="6.4"/>
 <circle cx="757.7" cy="44.1" r="14.3"/><circle cx="902.3" cy="67.1" r="10.9"/><circle cx="832.9" cy="63.9" r="6.4"/><circle cx="542.3" cy="44.1" r="14.3"/><circle cx="686.9" cy="67.1" r="10.9"/><circle cx="617.5" cy="63.9" r="6.4"/><circle cx="326.9" cy="44.1" r="14.3"/><circle cx="471.6" cy="67.1" r="10.9"/><circle cx="402.2" cy="63.9" r="6.4"/><circle cx="111.2" cy="44.1" r="14.3"/><circle cx="256.2" cy="67.1" r="10.9"/><circle cx="186.8" cy="63.9" r="6.4"/><circle cx="40.9" cy="67.1" r="10.9"/>
 </g>
 </svg> 
