 <svg preserveAspectRatio="xMidYMax slice" xmlns="http://www.w3.org/2000/svg" viewBox="0 0 2000 73"><g fill="%23fbd8c2"><path d="M2000 0v14c-6 0-11 2-16 6a48 48 0 00-4 7 46 46 0 01-3 3c-3 4-6 6-10 6l-12-3c-4 0-6 4-8 7s-5 7-8 8c-4 1-8-1-12-3l-2-2a23 23 0 00-14-2 29 29 0 00-14 6l-3 2-12 15-12-15c-5-4-11-7-17-8a23 23 0 00-13 2c-5 3-10 7-15 5-3-1-6-5-8-8s-4-7-8-7-8 3-11 3c-5 0-8-2-11-6l-1-1-6-9c-5-5-11-6-18-6a26 26 0 01-5-1 27 27 0 01-6 1c-6 0-13 1-17 6l-6 8-2 2c-2 4-6 6-10 6s-7-3-11-3-7 4-9 7-4 7-8 8a10 10 0 01-6-1l-8-4a23 23 0 00-13-2 29 29 0 00-13 5 38 38 0 00-4 3l-13 15-12-15c-5-4-10-7-17-8a23 23 0 00-13 2c-5 3-9 7-14 5-4-1-6-4-8-8s-5-7-9-7-7 3-11 3-8-2-11-6l-1-1-6-9c-5-5-11-6-18-6a26 26 0 01-5-1 27 27 0 01-6 1c-6 0-13 1-17 6a52 52 0 00-5 7l-2 3c-3 4-7 6-11 6s-7-3-11-3-7 4-9 7-4 7-8 8-8-2-12-4l-2-1a23 23 0 00-13-2 30 30 0 00-15 7l-2 1-12 15-13-15c-5-4-10-7-17-8a23 23 0 00-13 2l-1 1c-4 2-8 5-13 4-4-1-6-5-8-8s-5-7-9-7-7 3-11 3-8-2-10-6l-1-1-7-9c-4-5-11-6-17-6a26 26 0 01-6-1 27 27 0 01-5 1c-7 0-13 1-18 6l-6 9-1 1c-3 4-7 6-11 6-3 0-7-3-11-3s-6 4-8 7-5 7-8 8-6 0-9-1l-6-4a23 23 0 00-13-2 29 29 0 00-14 6 41 41 0 00-3 2l-12 15-12-15h-1c-4-4-10-7-16-8a23 23 0 00-10 1 22 22 0 00-4 1c-4 3-9 7-14 5-3-1-6-5-8-8s-5-7-8-7l-11 3c-5 0-8-2-11-6l-2-2a70 70 0 00-5-8c-5-5-11-6-18-6a26 26 0 01-5-1 27 27 0 01-6 1c-7 0-13 1-18 6a62 62 0 00-5 8l-2 2c-2 4-6 6-10 6s-8-3-11-3-7 4-9 7-4 7-8 8c-5 2-10-2-14-5h-2a23 23 0 00-12-2 30 30 0 00-17 8l-12 15-12-15-2-2a30 30 0 00-15-6 23 23 0 00-13 2l-4 2c-4 2-7 4-10 3-4-1-6-5-9-8s-4-7-8-7-7 3-11 3-8-2-11-6l-1-1-6-9c-5-5-11-6-18-6a26 26 0 01-5-1 27 27 0 01-6 1c-6 0-13 1-17 6l-6 9-2 1c-2 4-6 6-10 6s-7-3-11-3-7 4-9 7-4 7-8 8-7-1-11-3l-3-2a23 23 0 00-13-2 30 30 0 00-16 7l-1 1-12 15-13-15-1-1c-5-4-10-7-16-7a23 23 0 00-13 2c-5 3-9 7-14 5-4-1-6-4-8-8s-5-7-9-7-7 3-11 3-8-2-10-6l-3-2a58 58 0 00-5-8c-4-5-11-6-17-6a26 26 0 01-6-1 27 27 0 01-5 1c-7 0-13 1-18 6a56 56 0 00-5 7l-2 3c-3 4-7 6-11 6s-7-3-11-3-6 4-8 7-5 7-9 8-9-2-14-5a23 23 0 00-13-2 30 30 0 00-15 7l-2 1-12 15-12-15-2-1c-4-4-10-7-15-7a23 23 0 00-14 2l-2 1c-4 3-8 5-12 4s-6-5-8-8-5-7-9-7-7 3-11 3-8-2-10-6l-1-1-6-9c-5-5-11-6-18-6a26 26 0 01-6-1 27 27 0 01-5 1c-7 0-13 1-18 6l-6 9-1 1c-3 4-6 6-10 6l-12-3c-4 0-6 4-8 7s-4 7-8 8-7 0-10-2l-4-3a23 23 0 00-14-2 29 29 0 00-14 6l-3 2-12 15-12-15h-1c-5-4-10-7-16-8a23 23 0 00-11 1l-2 1c-5 2-10 6-15 5-3-1-6-5-8-8s-4-7-8-7-8 3-11 3c-4 0-8-2-11-6l-2-2a65 65 0 00-5-8c-5-5-11-6-18-6l-7-1V0z"/><path d="M1287 64l8-6-3-9h-10l-4 9 9 6zM1255 53l13-9-5-16h-17l-5 16 14 9zM1539 64l8-6-3-9h-10l-3 9 8 6zM1411 70l11-7-4-13h-13l-4 13 10 7zM1507 53l13-9-5-16h-16l-6 16 14 9zM1789 68l8-6-3-10h-11l-3 10 9 6zM1667 69l8-6-3-9h-10l-3 9 8 6zM1757 57l13-10-5-16h-17l-5 16 14 10zM1853 70l9-6-4-10h-10l-3 10 8 6zM1912 73l12-8-5-14h-14l-5 14 12 8zM1062 72l-8-6 3-10h10l3 10-8 6zM1005 42l-10-7 4-12h12l4 12-10 7zM955 61l-7-5 3-8h9l2 8-7 5zM1097 71l-11-9 4-13h14l5 13-12 9zM726 62l-9-6 4-9h10l3 9-8 6zM850 69l-8-6 3-10h10l3 10-8 6zM753 47l-11-9 4-13h14l5 13-12 9zM474 65l-8-6 3-10h11l3 10-9 6zM598 71l-8-6 3-10h10l3 10-8 6zM502 49l-11-8 4-13h14l5 13-12 8zM281 66l8-6-3-10h-10l-3 10 8 6zM253 50l12-8-5-14h-14l-4 14 11 8zM97 70l7-4-3-8h-8l-3 8 7 4zM49 62l9-7-3-11H43l-3 11 9 7z"/></g></svg>

 