 <svg xmlns="http://www.w3.org/2000/svg" viewBox="0 0 98 11" preserveAspectRatio="none"><path d="M0 1l1 10L2 1l1 10L4 1l1 10L6 1l1 10L8 1l1 10 1-10 1 10 1-10 1 10 1-10 1 10 1-10 1 10 1-10 1 10 1-10 1 10 1-10 1 10 1-10 1 10 1-10 1 10 1-10 1 10 1-10 1 10 1-10 1 10 1-10 1 10 1-10 1 10 1-10 1 10 1-10 1 10 1-10 1 10 1-10 1 10 1-10 1 10 1-10 1 10 1-10 1 10 1-10 1 10 1-10 1 10 1-10 1 10 1-10 1 10 1-10 1 10 1-10 1 10 1-10 1 10 1-10 1 10 1-10 1 10 1-10 1 10 1-10 1 10 1-10 1 10 1-10 1 10 1-10 1 10 1-10 1 10 1-10 1 10 1-10 1 10 1-10 1 10 1-10 1 10 1-10 1 10 1-10 1 10 1-10 1 10 1-10 1 10 1-10V0H0z" fill="%23fbd8c2"/></svg>


 