<svg width="167" height="24" fill="none" xmlns="http://www.w3.org/2000/svg"><g clip-path="url(#clip0_458_241)"><path d="M35.436 7.564c-1.683 0-2.781.56-2.781 1.542s1.145 1.426 2.828 1.613c2.407.21 5.538.607 5.538 3.88 0 2.313-2.196 3.972-5.562 3.972-2.127 0-4.16-.467-5.96-2.313l1.426-1.847a6.234 6.234 0 004.487 1.847c1.45 0 2.875-.444 2.875-1.613 0-1.168-1.122-1.566-3.038-1.73-2.43-.21-5.329-.934-5.329-3.715 0-2.781 2.992-3.833 5.422-3.833a7.838 7.838 0 015.025 1.66l-1.426 1.659a5.344 5.344 0 00-3.505-1.122zm14.606 8.553c1.38 0 2.969-.467 3.787-1.355l1.776 1.66c-1.356 1.448-3.6 2.15-5.61 2.15-4.276 0-7.034-2.571-7.034-6.591s2.851-6.59 6.988-6.59c3.833 0 6.474 2.173 6.474 6.496 0 .35-.024.748-.047 1.122H45.812c.21 1.94 1.823 3.108 4.23 3.108zm-.093-8.413c-1.986 0-3.692 1.052-4.113 3.085h7.922c-.187-2.01-1.542-3.085-3.809-3.085zm19.094 3.506c0-2.174-1.262-3.413-3.529-3.413a3.68 3.68 0 00-2.64 1.122c-.702.725-1.053 1.706-1.03 2.711v6.66H59.11V5.67h2.501l.164 1.754c1.098-1.31 2.687-2.08 4.393-2.057 3.155 0 5.61 1.893 5.61 5.82v7.08H69.02l.023-7.057zm19.374 7.057h-2.57l-.164-1.986c-1.028 1.496-2.735 2.36-4.51 2.29-3.787 0-6.661-2.43-6.661-6.59s2.828-6.59 6.614-6.59c1.589 0 3.739.747 4.58 2.243V.459h2.735l-.024 17.808zm-11.194-6.31c0 2.548 1.8 4.16 4.113 4.16 2.314 0 4.09-1.846 4.09-4.136s-1.823-4.137-4.09-4.137-4.113 1.566-4.113 4.113zM93.489.108c.444-.046.864.117 1.192.421.327.304.514.748.514 1.192-.07.912-.795 1.59-1.683 1.59a1.69 1.69 0 01-1.683-1.59c0-.444.164-.888.491-1.192A1.578 1.578 0 0193.49.11zm1.355 18.16H92.11V5.67h2.734v12.596zm13.602-7.058c0-2.174-1.262-3.413-3.529-3.413-.982 0-1.94.398-2.641 1.122-.701.725-1.052 1.706-1.028 2.711v6.66h-2.735V5.67h2.478l.163 1.754c1.099-1.31 2.711-2.08 4.394-2.057 3.155 0 5.609 1.893 5.609 5.82v7.08h-2.734l.023-7.057zm8.974-3.483c.842-1.495 2.992-2.36 4.581-2.36 3.763 0 6.614 2.314 6.614 6.59 0 4.277-3.062 6.591-6.637 6.591-1.636 0-3.529-.678-4.558-2.29l-.163 1.986h-2.571V.46h2.734v7.268zm.164 4.23a4.114 4.114 0 001.215 2.992 3.961 3.961 0 002.968 1.168c2.384 0 4.114-1.612 4.114-4.16 0-2.547-1.753-4.136-4.114-4.136a3.962 3.962 0 00-2.968 1.168 4.099 4.099 0 00-1.215 2.968zm16.757 6.31h-2.735V.46h2.735v17.808zm6.333-5.749c0 2.15 1.239 3.623 3.553 3.623.981 0 1.939-.397 2.617-1.099a3.677 3.677 0 001.005-2.687V5.67h2.734v12.596h-2.453l-.164-1.729c-1.122 1.356-2.781 2.104-4.487 2.033-3.202 0-5.492-2.22-5.492-6.006V5.671h2.734l-.047 6.847zm19.889 3.6c1.379 0 2.968-.468 3.786-1.356l1.776 1.66c-1.355 1.448-3.599 2.15-5.609 2.15-4.277 0-7.035-2.571-7.035-6.591s2.852-6.59 6.988-6.59c3.833 0 6.474 2.173 6.474 6.496 0 .35-.023.748-.047 1.122h-10.587c.234 1.94 1.847 3.108 4.254 3.108zm-.094-8.414c-1.986 0-3.716 1.052-4.113 3.085h7.899c-.163-2.01-1.542-3.085-3.786-3.085z" fill="#091E3F"/><path d="M21.53 6.021a6.335 6.335 0 00-3.902-3.015c-.351-.093-.702-.14-1.052-.187C15.407 1.113 13.444.085 11.34.085a6.264 6.264 0 00-5.212 2.758A6.4 6.4 0 001.151 6.02a6.564 6.564 0 00-.257 5.936 6.519 6.519 0 00.257 5.913 6.334 6.334 0 003.903 3.015c.35.093.701.164 1.075.187a6.305 6.305 0 005.235 2.758c2.103 0 4.043-1.052 5.235-2.781a6.36 6.36 0 004.955-3.179 6.424 6.424 0 00.257-5.936c.865-1.893.748-4.09-.28-5.913zm-1.589.935a4.34 4.34 0 01.538 2.898 7.65 7.65 0 00-1.122-.818 6.43 6.43 0 00-4.908-.654 6.417 6.417 0 00-2.711 1.472c-.28-1.8.56-3.576 2.15-4.51a4.455 4.455 0 013.319-.468c1.192.304 2.173 1.052 2.734 2.08zm-8.6-4.768c.981 0 1.94.351 2.687.982-.444.14-.864.327-1.262.56-2.36 1.403-3.575 4.16-2.968 6.849a4.364 4.364 0 01-2.734-4.044 4.309 4.309 0 014.277-4.347zM2.787 7.073c.49-.841 1.285-1.496 2.22-1.87a6.713 6.713 0 00-.163 1.356c0 2.734 1.823 5.188 4.534 6.03a4.465 4.465 0 01-1.66.84c-1.122.281-2.313.141-3.318-.443-2.127-1.192-2.852-3.833-1.636-5.913h.023zm-.023 9.862a4.34 4.34 0 01-.538-2.898c.35.304.725.585 1.122.818a6.558 6.558 0 004.908.655 6.417 6.417 0 002.71-1.473 4.425 4.425 0 01-2.15 4.511 4.455 4.455 0 01-3.318.467 4.403 4.403 0 01-2.734-2.08zm8.623 4.768c-.981 0-1.94-.35-2.687-.982.444-.14.865-.327 1.262-.56 2.36-1.403 3.576-4.16 2.991-6.825a4.35 4.35 0 012.665 4.815c-.398 2.033-2.174 3.529-4.23 3.552zm8.11-4.861a4.422 4.422 0 01-2.15 1.87 6.79 6.79 0 00.164-1.38 6.328 6.328 0 00-4.394-6.029 4.27 4.27 0 011.612-.841 4.22 4.22 0 013.226.467 4.354 4.354 0 011.542 5.913z" fill="#0092FF"/></g><defs><clipPath id="clip0_458_241"><path fill="#fff" transform="translate(.307 .085)" d="M0 0h166.636v23.745H0z"/></clipPath></defs></svg>