<?xml version="1.0" encoding="UTF-8" standalone="no"?>
<svg
   viewBox="0 0 24 23.999999"
   preserveAspectRatio="none"
   version="1.1"
   id="svg827"
   width="24"
   height="24"
   xmlns="http://www.w3.org/2000/svg"
   xmlns:svg="http://www.w3.org/2000/svg">
  <defs
     id="defs831">
    <clipPath
       clipPathUnits="userSpaceOnUse"
       id="clipPath10462">
      <rect
         style="display:block;fill:#32373c;fill-opacity:0.477856;stroke:none;stroke-width:3;stroke-miterlimit:4;stroke-dasharray:none;stroke-opacity:1"
         id="rect10464"
         width="16.417038"
         height="15.959902"
         x="23.682037"
         y="9.0140829" />
    </clipPath>
  </defs>
  <rect
     style="fill:none;fill-opacity:1;stroke:#32373c;stroke-width:0.898842;stroke-miterlimit:4;stroke-dasharray:none;stroke-opacity:1"
     id="rect912"
     width="17.353075"
     height="16.482855"
     x="3.6442888"
     y="3.9104509" />
  <path
     id="rect1104"
     style="fill:#32373c;fill-opacity:1;stroke:#32373c;stroke-width:1.0096;stroke-miterlimit:4;stroke-dasharray:none;stroke-opacity:1"
     d="M 3.9387578,4.0168828 V 13.62921 H 20.89132 V 4.0168828 Z" />
  <path
     style="fill:#32373c;fill-opacity:1;stroke-width:0"
     id="path920"
     d="m 5.8222534,17.889124 -1.1512196,-1.951576 -1.1512195,-1.951576 2.2657241,-0.0212 2.265724,-0.0212 -1.1145045,1.972774 z" />
  <path
     style="fill:#32373c;fill-opacity:1;stroke-width:0"
     id="path920-8"
     d="m 5.8222534,17.889124 -1.1512196,-1.951576 -1.1512195,-1.951576 2.2657241,-0.0212 2.265724,-0.0212 -1.1145045,1.972774 z"
     transform="translate(4.5314482,-0.04239487)" />
  <path
     style="fill:#32373c;fill-opacity:1;stroke-width:0"
     id="path920-8-2"
     transform="translate(9.0628964,-0.08478974)"
     d="m 5.8222534,17.889124 -1.1512196,-1.951576 -1.1512195,-1.951576 2.2657241,-0.0212 2.265724,-0.0212 -1.1145045,1.972774 z" />
  <path
     style="fill:#32373c;fill-opacity:1;stroke-width:0"
     id="path920-8-0"
     transform="translate(13.283442,-0.2515457)"
     d="m 5.8222534,17.889124 -1.1512196,-1.951576 -1.1512195,-1.951576 2.2657241,-0.0212 2.265724,-0.0212 -1.1145045,1.972774 z" />
</svg>
