<svg width="250" height="206" viewBox="0 0 250 206" fill="none" xmlns="http://www.w3.org/2000/svg">
<path d="M45.132 54.6978C45.132 57.645 43.305 60.6682 41.068 60.6682C38.83 60.6682 37 57.645 37 54.6978C37 51.7506 38.827 50 41.068 50C43.308 50 45.132 51.7506 45.132 54.6978Z" fill="#407BFF"/>
<path d="M41.0681 60.3672L40.3611 61.8286H41.7741L41.0681 60.3672Z" fill="#407BFF"/>
<path opacity="0.7" d="M45.132 54.6978C45.132 57.645 43.305 60.6682 41.068 60.6682C38.83 60.6682 37 57.645 37 54.6978C37 51.7506 38.827 50 41.068 50C43.308 50 45.132 51.7506 45.132 54.6978Z" fill="white"/>
<path d="M43.1809 72.213H42.9799C42.9799 71.2997 42.5049 70.843 42.0029 70.3619C41.4999 69.8809 40.9639 69.3724 40.9639 68.3647C40.9639 67.3569 41.4939 66.8424 42.0029 66.3674C42.5109 65.8925 42.9799 65.4358 42.9799 64.5163C42.9799 63.5969 42.5049 63.1463 42.0029 62.6652C41.4999 62.1842 40.9639 61.6757 40.9639 60.668H41.1679C41.1679 61.5813 41.6399 62.0411 42.1429 62.5221C42.6449 63.0032 43.1809 63.5116 43.1809 64.5163C43.1809 65.521 42.6539 66.0386 42.1429 66.5136C41.6309 66.9885 41.1679 67.4452 41.1679 68.3647C41.1679 69.2841 41.6399 69.7378 42.1429 70.2158C42.6449 70.6938 43.1809 71.2083 43.1809 72.213Z" fill="#799EB0"/>
<path opacity="0.7" d="M41.0681 60.3672L40.3611 61.8286H41.7741L41.0681 60.3672Z" fill="white"/>
<path d="M41.3049 60.9478H40.8269C40.7529 60.9478 40.6819 60.9183 40.6289 60.8657C40.5769 60.8132 40.5469 60.742 40.5469 60.6677C40.5479 60.5939 40.5779 60.5235 40.6299 60.4716C40.6829 60.4197 40.7539 60.3906 40.8269 60.3906H41.3049C41.3789 60.3906 41.4499 60.4197 41.5019 60.4716C41.5549 60.5235 41.5849 60.5939 41.5859 60.6677C41.5859 60.742 41.5559 60.8132 41.5039 60.8657C41.4509 60.9183 41.3799 60.9478 41.3049 60.9478Z" fill="#455A64"/>
<path d="M198.028 24.6117C198.028 24.6117 198.848 29.1576 202.793 30.854L206.034 28.948C203.741 27.9135 201.836 26.1784 200.592 23.9922L198.028 24.6117Z" fill="#37474F"/>
<path d="M49.757 4.0095C49.757 4.0095 50.014 8.6222 46.583 11.1859L43 10.0804C43 10.0804 45.392 8.9367 46.583 4L49.757 4.0095Z" fill="#BA68C8"/>
<path d="M148.802 0.890589C145.876 0.0328887 141.855 0.271189 139.396 2.24389C137.49 3.76879 136.432 7.07579 139.224 8.20989C140.32 8.64829 143.932 8.64829 144.361 7.16159C144.666 6.12279 143.551 5.50329 142.655 5.36989C140.034 4.96009 137.576 7.72389 137.633 10.1923C137.728 13.8996 142.045 15.129 145.095 15.1576C145.295 15.1576 145.247 15.5388 145.095 15.5483C139.901 16.0534 134.106 11.2406 138.719 6.41819C139.968 5.12209 141.912 4.19769 143.704 4.91239C144.714 5.32219 145.514 6.23719 145.009 7.33309C144.199 9.09629 140.94 9.40119 139.358 8.95329C138.938 8.84169 138.546 8.64529 138.206 8.37619C137.865 8.10709 137.584 7.77099 137.378 7.38859C137.173 7.00629 137.048 6.58599 137.011 6.15349C136.975 5.72099 137.027 5.28569 137.166 4.87429C138.443 0.185387 145 -0.843912 148.898 0.614288C149.012 0.614288 148.964 0.928789 148.831 0.890589H148.802Z" fill="#BA68C8"/>
<path d="M8.48097 51.004C11.969 52.0428 15.209 58.1803 11.969 60.9727C9.21496 63.3553 3.64897 62.8121 4.57397 58.2852C4.58397 58.2342 4.60696 58.1867 4.63996 58.1468C4.67296 58.1069 4.71597 58.0758 4.76397 58.0564C8.42397 57.1892 9.63396 61.4588 8.86196 64.2797C7.67096 68.6542 3.24896 68.6065 0.0559631 66.3097C-0.0490369 66.2335 -0.00103569 65.938 0.150964 66.0143C2.76296 67.3199 6.42197 68.4731 8.01397 65.1375C8.86197 63.3553 8.89096 60.3723 7.25196 59.038C6.82596 58.6375 6.26296 58.4158 5.67896 58.4186C4.45896 58.5615 4.66896 59.8863 5.35496 60.7154C6.45096 62.0496 8.65296 61.9067 10.12 61.392C15.143 59.6194 11.693 53.1006 8.41397 51.2708C8.31897 51.2136 8.33797 50.9658 8.48097 51.004Z" fill="#BA68C8"/>
<path d="M234.918 57.3646C239.035 56.8405 247.889 60.3095 245.583 65.9419C244.353 68.944 238.864 70.8691 237.063 67.4287C237.024 67.335 237.023 67.2299 237.06 67.1357C237.098 67.0414 237.17 66.9654 237.263 66.9236C245.84 62.0631 254.875 76.101 245.773 81.219C245.487 81.381 245.497 80.895 245.659 80.771C246.446 80.233 247.117 79.544 247.634 78.744C248.15 77.943 248.502 77.047 248.668 76.109C248.834 75.171 248.811 74.209 248.6 73.28C248.39 72.35 247.996 71.4725 247.441 70.6976C246.514 69.2172 245.194 68.0229 243.629 67.2476C242.457 66.6948 239.512 65.9134 238.416 67.057C237.92 67.5907 237.93 66.9236 238.187 67.543C238.432 67.911 238.806 68.1731 239.235 68.2769C240.171 68.5741 241.181 68.5404 242.095 68.1816C244.001 67.5145 245.497 65.7609 244.954 63.6547C243.953 59.4327 238.578 57.9365 234.813 57.8697C234.556 57.8697 234.718 57.3837 234.918 57.3551V57.3646Z" fill="#BA68C8"/>
<path d="M226.905 119.98C226.905 119.98 229.002 124.098 233.243 124.603L235.854 121.858C235.854 121.858 233.205 122.068 229.698 118.398L226.905 119.98Z" fill="#BA68C8"/>
<path d="M3 147.582C3 147.582 5.087 151.699 9.338 152.204L11.892 149.46C11.892 149.46 9.242 149.669 5.745 146L3 147.582Z" fill="#37474F"/>
<path d="M201.432 51.2519C201.432 56.4957 198.181 61.9081 194.177 61.9081C190.173 61.9081 186.921 56.5069 186.921 51.2519C186.921 45.9969 190.169 42.873 194.177 42.873C198.184 42.873 201.432 45.9969 201.432 51.2519Z" fill="#DEDBFF"/>
<path d="M191.154 82.502H190.779C190.779 80.708 191.719 79.809 192.63 78.94C193.54 78.071 194.368 77.277 194.368 75.637C194.368 73.996 193.547 73.191 192.652 72.326C191.757 71.4604 190.802 70.5577 190.802 68.7636C190.802 66.9695 191.742 66.0818 192.652 65.209C193.562 64.3363 194.39 63.546 194.39 61.9092H194.765C194.765 63.6996 193.824 64.5985 192.914 65.4712C192.004 66.3439 191.154 67.1343 191.154 68.7711C191.154 70.4079 192 71.2207 192.896 72.075C193.791 72.929 194.746 73.843 194.746 75.637C194.746 77.431 193.806 78.33 192.896 79.199C191.985 80.068 191.154 80.862 191.154 82.502Z" fill="#799EB0"/>
<path d="M194.176 61.3691L192.914 63.9723H195.435L194.176 61.3691Z" fill="#407BFF"/>
<path d="M194.6 62.4063H193.75C193.618 62.4053 193.492 62.3524 193.398 62.2592C193.305 62.166 193.252 62.04 193.251 61.9082C193.251 61.7757 193.304 61.6486 193.397 61.5546C193.49 61.4606 193.617 61.4072 193.75 61.4063H194.6C194.666 61.4062 194.731 61.4193 194.791 61.4445C194.852 61.4698 194.907 61.5067 194.953 61.5534C195 61.6 195.036 61.6554 195.061 61.7163C195.086 61.7771 195.099 61.8424 195.098 61.9082C195.098 62.0403 195.046 62.1669 194.952 62.2603C194.859 62.3537 194.732 62.4063 194.6 62.4063Z" fill="#455A64"/>
<path d="M68.927 85.032C69.021 85.125 87.381 78.848 87.381 78.848L80.304 62.7266L63.979 68.9604L72.968 74.099L68.927 85.032Z" fill="#799EB0"/>
<path d="M77.54 67.5793V45.6316C77.54 45.6316 102.866 41.0209 121.115 41.296C139.364 41.5711 158.155 44.5477 158.155 44.5477V65.6206C158.155 65.6206 100.958 60.5367 77.54 67.5793Z" fill="#799EB0"/>
<path d="M77.407 67.6018L87.358 78.942V65.6211C87.358 65.6211 79.038 66.6115 77.407 67.6018Z" fill="#5A7685"/>
<path d="M77.5401 45.626C77.6231 45.626 77.656 50.5778 77.623 56.6301C77.59 62.6823 77.49 67.6342 77.413 67.6342C77.335 67.6342 77.297 62.7153 77.33 56.6301C77.363 50.5448 77.4571 45.626 77.5401 45.626Z" fill="#5A7685"/>
<path d="M166.724 83.348C166.63 83.441 148.27 77.164 148.27 77.164L155.33 61.0371L171.672 67.2599L162.677 72.399L166.724 83.348Z" fill="#799EB0"/>
<path d="M158.254 65.9183L148.303 77.258V64.9004C151.64 65.0141 154.964 65.3541 158.254 65.9183Z" fill="#5A7685"/>
<path d="M158.144 44.5479C158.221 44.5479 158.31 49.3291 158.337 55.2328C158.365 61.1365 158.337 65.9178 158.243 65.9178C158.149 65.9178 158.078 61.1365 158.05 55.2328C158.022 49.3291 158.061 44.5479 158.144 44.5479Z" fill="#5A7685"/>
<path d="M91.82 55.255C91.768 54.6231 91.904 53.99 92.211 53.4347C92.519 52.8794 92.984 52.4267 93.548 52.1331C94.113 51.8395 94.752 51.7181 95.386 51.7841C96.019 51.8501 96.619 52.1005 97.11 52.504L96.336 53.4283C96.128 53.2391 95.88 53.098 95.611 53.0153C95.341 52.9325 95.057 52.9101 94.777 52.9496C94.282 53.0182 93.834 53.2799 93.532 53.6772C93.231 54.0744 93.1 54.5747 93.169 55.0679C93.238 55.5611 93.501 56.0069 93.9 56.3072C94.299 56.6074 94.802 56.7376 95.297 56.669C95.578 56.6322 95.847 56.533 96.085 56.3788C96.322 56.2245 96.521 56.019 96.668 55.7777L97.641 56.4544C97.281 56.9764 96.774 57.3809 96.183 57.6173C95.593 57.8537 94.945 57.9115 94.322 57.7834C93.699 57.6554 93.127 57.3472 92.679 56.8974C92.231 56.4477 91.927 55.8763 91.803 55.255H91.82Z" fill="white"/>
<path d="M97.851 54.4298C97.748 53.7945 97.839 53.1432 98.113 52.5601C98.386 51.9769 98.829 51.4889 99.384 51.1591C99.939 50.8294 100.581 50.6731 101.226 50.7105C101.872 50.7479 102.491 50.9773 103.004 51.369C103.517 51.7607 103.9 52.2966 104.103 52.9074C104.307 53.5182 104.321 54.1756 104.145 54.7947C103.968 55.4137 103.609 55.9658 103.114 56.3795C102.619 56.7931 102.01 57.0493 101.367 57.1148C100.958 57.1798 100.539 57.1611 100.137 57.0597C99.735 56.9583 99.358 56.7764 99.029 56.5251C98.7 56.2738 98.426 55.9584 98.223 55.5982C98.021 55.2379 97.894 54.8404 97.851 54.4298ZM102.888 53.9126C102.843 53.5556 102.693 53.2197 102.458 52.9467C102.222 52.6737 101.911 52.4758 101.563 52.3777C101.215 52.2795 100.846 52.2854 100.502 52.3947C100.157 52.5039 99.853 52.7117 99.626 52.992C99.4 53.2724 99.261 53.6129 99.228 53.9712C99.194 54.3294 99.268 54.6895 99.439 55.0066C99.61 55.3236 99.871 55.5835 100.189 55.754C100.507 55.9244 100.869 55.9977 101.229 55.9648C101.477 55.9486 101.719 55.8812 101.94 55.767C102.161 55.6528 102.355 55.4942 102.511 55.3012C102.667 55.1083 102.781 54.8853 102.846 54.6462C102.911 54.4072 102.925 54.1574 102.888 53.9126Z" fill="white"/>
<path d="M110.882 56.2616L110.644 52.7513L109.102 55.7555L108.494 55.794L106.586 53.087L106.813 56.5202L105.536 56.6028L105.182 50.7541L106.288 50.6826L108.72 54.1764L110.65 50.4075L111.755 50.3359L112.153 56.1791L110.882 56.2616Z" fill="white"/>
<path d="M118.494 52.2564C118.527 53.5659 117.565 54.4022 115.995 54.4572L114.807 54.4902L114.857 56.1078L113.491 56.1463L113.325 50.2536L115.874 50.1821C117.449 50.1601 118.45 50.9469 118.494 52.2564ZM117.112 52.2949C117.112 51.6511 116.664 51.288 115.83 51.31L114.724 51.343L114.785 53.3788L115.89 53.3458C116.72 53.3238 117.129 52.9331 117.112 52.2949Z" fill="white"/>
<path d="M119.556 50.127H120.916V54.8807H123.868V55.9811H119.556V50.127Z" fill="white"/>
<path d="M129.147 55.0515V56.1519L124.586 56.0198L124.758 50.1602L129.18 50.2922L129.147 51.3926L126.051 51.2991L126.018 52.5756L128.749 52.6526L128.716 53.709L125.985 53.6264L125.946 54.9855L129.147 55.0515Z" fill="white"/>
<path d="M131.668 51.5181L129.789 51.408L129.855 50.3076L134.974 50.6157L134.908 51.7161L133.028 51.6006L132.741 56.3489L131.381 56.2663L131.668 51.5181Z" fill="white"/>
<path d="M139.933 55.855L139.834 56.9554L135.29 56.5372L135.842 50.7051L140.265 51.1122L140.166 52.2126L137.081 51.9045L136.965 53.1755L139.685 53.4231L139.591 54.474L136.865 54.2264L136.744 55.5744L139.933 55.855Z" fill="white"/>
<path d="M141.636 51.2383L144.284 51.5904C146.191 51.8435 147.347 53.1585 147.115 54.8916C146.882 56.6248 145.412 57.6427 143.505 57.3676L140.856 57.0154L141.636 51.2383ZM143.587 56.2837C143.828 56.3221 144.074 56.3122 144.311 56.2544C144.547 56.1967 144.77 56.0924 144.966 55.9476C145.161 55.8028 145.326 55.6205 145.449 55.4114C145.573 55.2024 145.653 54.9708 145.685 54.7304C145.717 54.4899 145.701 54.2455 145.636 54.0116C145.572 53.7776 145.461 53.5589 145.31 53.3683C145.16 53.1776 144.972 53.019 144.759 52.9017C144.546 52.7844 144.311 52.7108 144.068 52.6853L142.836 52.5203L142.355 56.1186L143.587 56.2837Z" fill="white"/>
<path d="M88.2491 25.6211L93.8601 31.3157L101.76 28.3446L102.075 30.2978L98.6531 37.2689L101.81 42.4739L101.545 44.0309L93.8991 42.749L89.3771 47.6843L88.3151 46.8865L87.3811 40.6087L80.2491 36.9113L79.9341 35.4753L87.1151 33.522L88.2491 25.6211Z" fill="#EDCB54"/>
<path d="M88.2491 24.0195L93.8601 29.7197L101.76 28.3441L98.0511 35.4198L101.81 42.4734L93.8991 41.1529L88.3151 46.886L87.1381 38.9906L79.9341 35.4748L87.1151 31.9205L88.2491 24.0195Z" fill="#FFDB5A"/>
<path d="M146.435 25.6211L140.818 31.3157L132.918 28.3446L132.603 30.2978L136.025 37.2689L132.868 42.4739L133.134 44.0309L140.78 42.749L145.302 47.6843L146.363 46.8865L147.297 40.6087L154.429 36.9113L154.744 35.4753L147.563 33.522L146.435 25.6211Z" fill="#EDCB54"/>
<path d="M146.435 24.0195L140.818 29.7197L132.918 28.3441L136.627 35.4198L132.868 42.4734L140.779 41.1529L146.363 46.886L147.54 38.9906L154.744 35.4748L147.563 31.9205L146.435 24.0195Z" fill="#FFDB5A"/>
<path d="M117.156 15.623L121.828 24.7069L132.603 24.0742L132.238 26.5721L125.394 33.7853L127.246 41.3286L126.334 43.1278L117.494 38.6656L110.091 42.9792L109.102 41.5982L110.362 33.5817L103.076 26.3685L103.242 24.5034L112.75 24.839L117.156 15.623Z" fill="#EDCB54"/>
<path d="M117.765 13.6758L122.436 22.7542L132.603 24.0747L125.366 31.3043L127.246 41.3291L118.107 36.7184L109.102 41.5987L110.688 31.5189L103.242 24.5038L113.364 22.8862L117.765 13.6758Z" fill="#FFDB5A"/>
<path d="M195.022 198.481V92.215C195.022 90.439 193.583 89 191.807 89H46.975C45.199 89 43.76 90.439 43.76 92.215V198.481C43.76 202.032 46.639 204.911 50.19 204.911H188.592C192.143 204.911 195.022 202.032 195.022 198.481Z" fill="#FAFAFA"/>
<path d="M99.5044 121.902H72.4956C71.6696 121.902 71 122.571 71 123.397V123.397C71 124.223 71.6696 124.893 72.4956 124.893H99.5044C100.33 124.893 101 124.223 101 123.397V123.397C101 122.571 100.33 121.902 99.5044 121.902Z" fill="#E1E7E9"/>
<path d="M173.504 128.633H72.4956C71.6696 128.633 71 129.302 71 130.128V130.128C71 130.954 71.6696 131.624 72.4956 131.624H173.504C174.33 131.624 175 130.954 175 130.128C175 129.302 174.33 128.633 173.504 128.633Z" fill="#E1E7E9"/>
<path d="M148.108 140.598H125.124V157.05H148.108V140.598Z" fill="#FAFCFD"/>
<path d="M139.463 146.58L132.538 154.058H145.884L139.463 146.58Z" fill="#C4C4C4"/>
<path d="M130.314 147.703C131.133 147.703 131.797 147.033 131.797 146.207C131.797 145.381 131.133 144.711 130.314 144.711C129.495 144.711 128.831 145.381 128.831 146.207C128.831 147.033 129.495 147.703 130.314 147.703Z" fill="#C4C4C4"/>
<path d="M132.885 149.197L128.46 154.058H136.987L132.885 149.197Z" fill="#DEDEDE"/>
<path d="M123.641 140.598H100.657V157.05H123.641V140.598Z" fill="#FAFCFD"/>
<path d="M114.996 146.58L108.071 154.058H121.416L114.996 146.58Z" fill="#C4C4C4"/>
<path d="M105.847 147.703C106.666 147.703 107.33 147.033 107.33 146.207C107.33 145.381 106.666 144.711 105.847 144.711C105.028 144.711 104.364 145.381 104.364 146.207C104.364 147.033 105.028 147.703 105.847 147.703Z" fill="#C4C4C4"/>
<path d="M108.418 149.197L103.993 154.058H112.52L108.418 149.197Z" fill="#DEDEDE"/>
<path d="M99.174 140.598H76.1899V157.05H99.174V140.598Z" fill="#FAFCFD"/>
<path d="M90.529 146.58L83.604 154.058H96.95L90.529 146.58Z" fill="#C4C4C4"/>
<path d="M81.3801 147.703C82.199 147.703 82.8629 147.033 82.8629 146.207C82.8629 145.381 82.199 144.711 81.3801 144.711C80.5611 144.711 79.8972 145.381 79.8972 146.207C79.8972 147.033 80.5611 147.703 81.3801 147.703Z" fill="#C4C4C4"/>
<path d="M83.9509 149.197L79.5259 154.058H88.0529L83.9509 149.197Z" fill="#DEDEDE"/>
<path d="M43.76 108.817V95.43C43.76 91.879 46.639 89 50.19 89H188.58C192.131 89 195.01 91.879 195.01 95.43V108.817H43.76Z" fill="#F0F0F2"/>
<path d="M58 99C58 97.3431 56.6569 96 55 96C53.3431 96 52 97.3431 52 99C52 100.657 53.3431 102 55 102C56.6569 102 58 100.657 58 99Z" fill="white"/>
<path d="M97 97H84C82.8954 97 82 97.8954 82 99C82 100.105 82.8954 101 84 101H97C98.1046 101 99 100.105 99 99C99 97.8954 98.1046 97 97 97Z" fill="#E9ECEE"/>
<path d="M118 97H105C103.895 97 103 97.8954 103 99C103 100.105 103.895 101 105 101H118C119.105 101 120 100.105 120 99C120 97.8954 119.105 97 118 97Z" fill="#E9ECEE"/>
<path d="M139 97H126C124.895 97 124 97.8954 124 99C124 100.105 124.895 101 126 101H139C140.105 101 141 100.105 141 99C141 97.8954 140.105 97 139 97Z" fill="#E9ECEE"/>
<path d="M160 97H147C145.895 97 145 97.8954 145 99C145 100.105 145.895 101 147 101H160C161.105 101 162 100.105 162 99C162 97.8954 161.105 97 160 97Z" fill="#E9ECEE"/>
<path d="M195 205V109H44V198.57C44 202.121 46.879 205 50.43 205H195Z" fill="#F0F0F2" fill-opacity="0.5"/>
<path d="M99.5044 182.477H72.4956C71.6696 182.477 71 183.147 71 183.973C71 184.799 71.6696 185.468 72.4956 185.468H99.5044C100.33 185.468 101 184.799 101 183.973C101 183.147 100.33 182.477 99.5044 182.477Z" fill="#E1E7E9"/>
<path d="M173.504 189.205H72.4956C71.6696 189.205 71 189.875 71 190.701C71 191.527 71.6696 192.196 72.4956 192.196H173.504C174.33 192.196 175 191.527 175 190.701C175 189.875 174.33 189.205 173.504 189.205Z" fill="#E1E7E9"/>
<path d="M99.5044 164.154H72.4956C71.6696 164.154 71 164.823 71 165.649V165.649C71 166.475 71.6696 167.145 72.4956 167.145H99.5044C100.33 167.145 101 166.475 101 165.649V165.649C101 164.823 100.33 164.154 99.5044 164.154Z" fill="#E1E7E9"/>
<path d="M173.504 170.885H72.4956C71.6696 170.885 71 171.554 71 172.38V172.38C71 173.206 71.6696 173.876 72.4956 173.876H173.504C174.33 173.876 175 173.206 175 172.38C175 171.554 174.33 170.885 173.504 170.885Z" fill="#E1E7E9"/>
<path fill-rule="evenodd" clip-rule="evenodd" d="M120 140C113.373 140 108 145.373 108 152C108 158.627 113.373 164 120 164C126.627 164 132 158.627 132 152C132 145.373 126.627 140 120 140ZM125.201 149.971C125.297 149.861 125.37 149.734 125.416 149.596C125.462 149.458 125.479 149.312 125.468 149.167C125.457 149.022 125.416 148.881 125.349 148.751C125.283 148.622 125.191 148.508 125.079 148.415C124.967 148.321 124.838 148.252 124.699 148.209C124.56 148.167 124.413 148.153 124.269 148.167C124.124 148.182 123.984 148.226 123.856 148.296C123.729 148.366 123.616 148.461 123.526 148.575L118.835 154.203L116.408 151.774C116.202 151.575 115.926 151.466 115.64 151.468C115.354 151.47 115.081 151.585 114.878 151.787C114.676 151.99 114.561 152.263 114.559 152.549C114.556 152.835 114.666 153.111 114.865 153.317L118.138 156.589C118.245 156.697 118.373 156.78 118.515 156.835C118.656 156.89 118.807 156.914 118.958 156.908C119.11 156.901 119.258 156.862 119.394 156.795C119.53 156.728 119.65 156.633 119.747 156.516L125.201 149.971Z" fill="#5046C2"/>
<path d="M44 181V129H55C57.209 129 59 130.791 59 133V177C59 179.209 57.209 181 55 181H44Z" fill="#5046C2"/>
<path d="M54 140C54 138.343 52.6569 137 51 137C49.3431 137 48 138.343 48 140C48 141.657 49.3431 143 51 143C52.6569 143 54 141.657 54 140Z" fill="#978DFF"/>
<path d="M54 150C54 148.343 52.6569 147 51 147C49.3431 147 48 148.343 48 150C48 151.657 49.3431 153 51 153C52.6569 153 54 151.657 54 150Z" fill="white"/>
<path d="M54 160C54 158.343 52.6569 157 51 157C49.3431 157 48 158.343 48 160C48 161.657 49.3431 163 51 163C52.6569 163 54 161.657 54 160Z" fill="#978DFF"/>
<path d="M54 170C54 168.343 52.6569 167 51 167C49.3431 167 48 168.343 48 170C48 171.657 49.3431 173 51 173C52.6569 173 54 171.657 54 170Z" fill="white"/>
<g filter="url(#filter0_i_137_202)">
<path d="M199.417 155H163.215C161.439 155 160 156.439 160 158.215V202.636C160 204.412 161.439 205.851 163.215 205.851H199.417C201.192 205.851 202.632 204.412 202.632 202.636V158.215C202.632 156.439 201.192 155 199.417 155Z" fill="#FAFAFA"/>
<path d="M202.728 203V158C202.728 156.343 201.385 155 199.728 155H163C161.343 155 160 156.343 160 158V203C160 204.657 161.343 206 163 206H199.728C201.385 206 202.728 204.657 202.728 203Z" fill="#F0F0F2" fill-opacity="0.5"/>
<path d="M184.5 159H171.5C170.672 159 170 159.672 170 160.5C170 161.328 170.672 162 171.5 162H184.5C185.328 162 186 161.328 186 160.5C186 159.672 185.328 159 184.5 159Z" fill="#E1E7E9"/>
<path d="M184.5 174H171.5C170.672 174 170 174.672 170 175.5C170 176.328 170.672 177 171.5 177H184.5C185.328 177 186 176.328 186 175.5C186 174.672 185.328 174 184.5 174Z" fill="#E1E7E9"/>
<path d="M184.5 189H171.5C170.672 189 170 189.672 170 190.5C170 191.328 170.672 192 171.5 192H184.5C185.328 192 186 191.328 186 190.5C186 189.672 185.328 189 184.5 189Z" fill="#E1E7E9"/>
<path d="M196 166H170V169H196V166Z" fill="#E1E7E9"/>
<path d="M196 181H170V184H196V181Z" fill="#E1E7E9"/>
<path d="M196 196H170V199H196V196Z" fill="#E1E7E9"/>
<path fill-rule="evenodd" clip-rule="evenodd" d="M181 175C177.686 175 175 177.686 175 181C175 184.314 177.686 187 181 187C184.314 187 187 184.314 187 181C187 177.686 184.314 175 181 175ZM183.601 179.985C183.649 179.931 183.685 179.867 183.708 179.798C183.731 179.729 183.74 179.656 183.734 179.583C183.728 179.511 183.708 179.44 183.675 179.376C183.641 179.311 183.595 179.254 183.539 179.207C183.484 179.161 183.419 179.126 183.349 179.105C183.28 179.083 183.207 179.076 183.134 179.084C183.062 179.091 182.992 179.113 182.928 179.148C182.864 179.183 182.808 179.23 182.763 179.287L180.417 182.101L179.204 180.887C179.101 180.788 178.963 180.733 178.82 180.734C178.677 180.735 178.54 180.793 178.439 180.894C178.338 180.995 178.281 181.132 178.279 181.275C178.278 181.418 178.333 181.555 178.433 181.658L180.069 183.295C180.123 183.348 180.187 183.39 180.257 183.417C180.328 183.445 180.404 183.457 180.479 183.454C180.555 183.45 180.629 183.431 180.697 183.398C180.765 183.364 180.825 183.316 180.873 183.258L183.601 179.985Z" fill="#5046C2"/>
<path d="M160 196V165H164C165.105 165 166 165.895 166 167V194C166 195.105 165.105 196 164 196H160Z" fill="#5046C2"/>
<path d="M165 169C165 167.895 164.105 167 163 167C161.895 167 161 167.895 161 169C161 170.105 161.895 171 163 171C164.105 171 165 170.105 165 169Z" fill="#978DFF"/>
<path d="M165 181C165 179.895 164.105 179 163 179C161.895 179 161 179.895 161 181C161 182.105 161.895 183 163 183C164.105 183 165 182.105 165 181Z" fill="#978DFF"/>
<path d="M165 175C165 173.895 164.105 173 163 173C161.895 173 161 173.895 161 175C161 176.105 161.895 177 163 177C164.105 177 165 176.105 165 175Z" fill="white"/>
<path d="M165 187C165 185.895 164.105 185 163 185C161.895 185 161 185.895 161 187C161 188.105 161.895 189 163 189C164.105 189 165 188.105 165 187Z" fill="white"/>
</g>
<defs>
<filter id="filter0_i_137_202" x="160" y="155" width="42.728" height="59" filterUnits="userSpaceOnUse" color-interpolation-filters="sRGB">
<feFlood flood-opacity="0" result="BackgroundImageFix"/>
<feBlend mode="normal" in="SourceGraphic" in2="BackgroundImageFix" result="shape"/>
<feColorMatrix in="SourceAlpha" type="matrix" values="0 0 0 0 0 0 0 0 0 0 0 0 0 0 0 0 0 0 127 0" result="hardAlpha"/>
<feOffset dy="8"/>
<feGaussianBlur stdDeviation="12"/>
<feComposite in2="hardAlpha" operator="arithmetic" k2="-1" k3="1"/>
<feColorMatrix type="matrix" values="0 0 0 0 0 0 0 0 0 0 0 0 0 0 0 0 0 0 0.12 0"/>
<feBlend mode="normal" in2="shape" result="effect1_innerShadow_137_202"/>
</filter>
</defs>
</svg>
