<svg enable-background="new 0 0 312 240" viewBox="0 0 312 240" xmlns="http://www.w3.org/2000/svg"><path d="m0 0h312v240h-312z" fill="#00a0d2"/><path d="m63 30h17.4c1.1 0 2 .9 2 2v17.4c0 1.1-.9 2-2 2h-17.4c-1.1 0-2-.9-2-2v-17.4c0-1.1.9-2 2-2z" fill="#1e1e1e"/><path d="m71.8 35v11m-5.8-5.8h11" fill="none" stroke="#fff" stroke-width="1.5"/><path d="m53 57h206c1.1 0 2 .9 2 2v150c0 1.1-.9 2-2 2h-206c-1.1 0-2-.9-2-2v-150c0-1.1.9-2 2-2z" fill="#fff"/><path d="m65 67.5h182c1.9 0 3.5 1.6 3.5 3.5v18c0 1.9-1.6 3.5-3.5 3.5h-182c-1.9 0-3.5-1.6-3.5-3.5v-18c0-1.9 1.6-3.5 3.5-3.5z" fill="none" stroke="#007ca8"/><path d="m101 115h-20v16h20zm-2 14h-16v-6h16zm0-10h-16v-2h16z"/><path d="m163.9 121.2 1.1-1.1c.8-.8.8-2.1 0-2.8l-1.4-1.4c-.8-.8-1.9-.8-2.7 0l-1.1 1.1zm-4.2 1.4-7 7.2h-1.3v-1.4l7-7.2zm-1.3-4.2-8.9 9.2v4.2h4.1l8.9-9.2zm5.6 9.9c0 2.2-2.4 3.5-4.8 3.5-.6 0-1-.5-1-1s.4-1 1-1c1.4 0 2.9-.7 2.9-1.5 0-.5-.5-.9-1.2-1.2l1.4-1.5c1 .6 1.7 1.5 1.7 2.7zm-14-4.1c-1-.6-1.5-1.3-1.5-2.4 0-1.8 1.8-2.6 3.5-3.4 1-.4 2.3-1 2.3-1.6 0-.4-.8-1-1.9-1-1.3 0-1.8.6-1.8.6-.3.4-.9.5-1.3.1-.4-.3-.5-1-.2-1.4.1-.1 1.1-1.3 3.3-1.3s3.9 1.3 3.9 3c0 1.9-1.8 2.7-3.5 3.5-1 .4-2.3 1-2.3 1.5 0 .3.4.6 1.1.9z"/><path d="m230.3 126.8v4.4h-7v-15l5.7 5.3 1.3-1.4-7.9-7.4-7.4 7.4 1.3 1.4 5.1-5.1v14.9h-7.7v-4.5h-1.9v6.4h20.3v-6.4z"/><path d="m85 168h2.5l-3.5-3.5-3.4 3.5h2.5v10h-2.5l3.5 3.5 3.5-3.5h-2.6zm4-2v2h12v-2zm0 14h12v-2h-12zm0-6h12v-2h-12z"/><path d="m217.9 165.7c0-.9.8-1.6 1.6-1.6h8c.9 0 1.6.8 1.6 1.6v4h2v-4c0-2-1.6-3.7-3.7-3.7h-7.9c-2 0-3.7 1.7-3.7 3.7v4h2zm11.2 14.6c0 .9-.8 1.6-1.6 1.6h-8c-.9 0-1.6-.8-1.6-1.6v-4h-2.1v4c0 2 1.6 3.7 3.7 3.7h8c2 0 3.7-1.6 3.7-3.7v-4h-2v4zm-16.2-8v1.3h21.2v-1.3z"/><path d="m150.8 165.9c.1.9.3 1.8.5 2.6l-1.2 1.2c-.4-1.2-.7-2.5-.8-3.8zm9.9 12c.9.2 1.7.4 2.6.5v1.5c-1.3-.1-2.6-.4-3.8-.8zm-8.9-14h-3.5c-.5 0-1 .5-1 1 0 9.4 7.6 17 17 17 .5 0 1-.5 1-1v-3.5c0-.6-.5-1-1-1-1.2 0-2.5-.2-3.6-.6-.1 0-.2-.1-.3-.1-.3 0-.5.1-.7.3l-2.2 2.2c-2.8-1.4-5.1-3.8-6.6-6.6l2.2-2.2c.3-.3.4-.7.2-1-.3-1-.5-2.2-.5-3.5 0-.5-.4-1-1-1z"/></svg>