<svg enable-background="new 0 0 312 240" viewBox="0 0 312 240" xmlns="http://www.w3.org/2000/svg" xmlns:xlink="http://www.w3.org/1999/xlink"><mask id="a" height="16.2" maskUnits="userSpaceOnUse" width="11.5" x="97" y="136.3"><path clip-rule="evenodd" d="m107.6 144.5-9.9-7.2 1.3 12.2 3.1-1.8 2.1 3.6c.4.7 1.2.9 1.9.5s.9-1.2.5-1.9l-2.1-3.6z" fill="#fff" fill-rule="evenodd"/></mask><path d="m0 0h312v240h-312z" fill="#00a0d2"/><path d="m51 32c0-1.1.9-2 2-2h206c1.1 0 2 .9 2 2v208h-210z" fill="#fff"/><g fill="#ddd"><circle cx="98" cy="137.5" r="8"/><path d="m90 97.7h88.5v8h-88.5z"/><circle cx="98" cy="118.7" r="8"/><path d="m112.3 114.7h103.7v8h-103.7z"/><path d="m112.3 133.5h72.4v8h-72.4z"/></g><circle cx="98" cy="137.5" fill="#fff" r="3"/><circle cx="98" cy="118.5" fill="#fff" r="3"/><path d="m51 32c0-1.1.9-2 2-2h206c1.1 0 2 .9 2 2v40h-210z" fill="#1e1e1e"/><circle cx="98" cy="197.3" fill="#fff" r="3"/><circle cx="98" cy="216.1" fill="#fff" r="3"/><path clip-rule="evenodd" d="m108.5 223.5-9.9-7.2 1.3 12.2 3.1-1.8 2.1 3.6c.4.7 1.2.9 1.9.5s.9-1.2.5-1.9l-2.1-3.6z" fill="#fff" fill-rule="evenodd"/><path d="m90 194.4h73.5v8h-73.5z" fill="#ddd"/><path d="m90 207.4h126v32.6h-126z" fill="#ddd"/><path d="m90 168.7h126v16h-126z" fill="#ddd"/><path d="m210.8 175.9-3 3-3-3"/><path d="m90 155.7h101.9v8h-101.9z" fill="#ddd"/><path clip-rule="evenodd" d="m107.6 144.5-9.9-7.2 1.3 12.2 3.1-1.8 2.1 3.6c.4.7 1.2.9 1.9.5s.9-1.2.5-1.9l-2.1-3.6z" fill="#fff" fill-rule="evenodd"/><path d="m97.6 137.4.3-.4-.9-.7.1 1.1zm10 7.1.2.4.7-.4-.6-.5zm-8.7 5-.5.1.1.8.7-.4zm3.1-1.8.4-.2-.2-.4-.4.2zm2.4-1.3-.2-.4-.4.2.2.4zm-7.1-8.6 9.9 7.2.6-.8-9.9-7.2zm2.1 11.7-1.3-12.2-1 .1 1.3 12.2zm2.4-2.2-3.1 1.8.5.9 3.1-1.8zm2.7 3.8-2.1-3.6-.9.5 2.1 3.6zm1.2.3c-.4.2-1 .1-1.2-.3l-.9.5c.5.9 1.7 1.2 2.6.7zm.3-1.2c.2.4.1 1-.3 1.2l.5.9c.9-.5 1.2-1.7.7-2.6zm-2-3.6 2.1 3.6.9-.5-2.1-3.6zm3.3-2.5-3.1 1.8.5.9 3.1-1.8z" mask="url(#a)"/></svg>