<?xml version="1.0" encoding="UTF-8" standalone="no"?>
<!-- Created with Inkscape (http://www.inkscape.org/) -->

<svg
   xmlns:dc="http://purl.org/dc/elements/1.1/"
   xmlns:cc="http://creativecommons.org/ns#"
   xmlns:rdf="http://www.w3.org/1999/02/22-rdf-syntax-ns#"
   xmlns:svg="http://www.w3.org/2000/svg"
   xmlns="http://www.w3.org/2000/svg"
   xmlns:sodipodi="http://sodipodi.sourceforge.net/DTD/sodipodi-0.dtd"
   xmlns:inkscape="http://www.inkscape.org/namespaces/inkscape"
   version="1.1"
   id="svg4747"
   width="18"
   height="18"
   viewBox="0 0 18 18"
   sodipodi:docname="eddie-white_18x18.svg"
   inkscape:export-filename="C:\Users\Tim.DESKTOP-9OHFD6T\Eddie-White_100x100.png"
   inkscape:export-xdpi="54.860001"
   inkscape:export-ydpi="54.860001"
   inkscape:version="0.92.4 (5da689c313, 2019-01-14)">
  <metadata
     id="metadata4753">
    <rdf:RDF>
      <cc:Work
         rdf:about="">
        <dc:format>image/svg+xml</dc:format>
        <dc:type
           rdf:resource="http://purl.org/dc/dcmitype/StillImage" />
        <dc:title></dc:title>
      </cc:Work>
    </rdf:RDF>
  </metadata>
  <defs
     id="defs4751" />
  <sodipodi:namedview
     pagecolor="#ffffff"
     bordercolor="#666666"
     borderopacity="1"
     objecttolerance="10"
     gridtolerance="10"
     guidetolerance="10"
     inkscape:pageopacity="0"
     inkscape:pageshadow="2"
     inkscape:window-width="1920"
     inkscape:window-height="1017"
     id="namedview4749"
     showgrid="false"
     inkscape:zoom="22.627417"
     inkscape:cx="2.3561347"
     inkscape:cy="14.574794"
     inkscape:window-x="1912"
     inkscape:window-y="-8"
     inkscape:window-maximized="1"
     inkscape:current-layer="svg4747" />
  <path
     inkscape:connector-curvature="0"
     id="path6964"
     d="M 7.3194535,0.04617566 C 7.0127929,0.12934144 7.8650324,1.5919323 7.1629118,2.8537007 6.9434623,3.047503 6.6161972,3.2211098 6.3231399,3.1278742 5.4738924,2.824033 4.7084371,2.3039888 3.8247516,2.0897488 2.4120918,1.9725107 4.0751768,2.6356331 3.9603724,4.5838824 3.7431047,5.1904974 3.5786142,5.6673992 3.46486,6.0659814 2.7720161,7.6250243 0.6888604,13.377312 0.26231409,14.958529 c -0.40482212,1.500621 -0.27003887,2.310226 0.42767054,2.787947 0.19464061,0.133412 2.22847727,0.205431 6.33729707,0.208872 h 6.0556403 l 0.47987,-1.305808 0.464236,-1.240547 0.01551,-0.01942 c 0.0028,-0.0035 -0.0028,-0.01942 0,-0.02608 0.130599,-0.274881 0.44029,-1.058591 0.417255,-1.66488 -0.644098,0.24581 -1.205888,0.929701 -1.356143,1.214354 -0.01368,-0.226168 0.178461,-0.847465 0.09395,-1.149135 -0.432458,0.359299 -0.907945,1.063591 -1.03797,1.345011 -0.01552,-0.221203 0.175754,-0.837548 0.0938,-1.129476 -0.308897,0.256587 -0.750388,0.864386 -0.897141,1.083767 -0.02083,-0.198101 0.164115,-0.787407 0.0938,-1.038112 -0.378804,0.314784 -0.844132,0.977338 -0.985759,1.233987 H 10.224405 C 8.7662394,15.224561 6.5732527,15.941204 6.1716544,12.6931 5.6628407,8.5777843 7.6941655,10.612793 9.9166595,11.400386 c -0.072366,0.253368 -0.3774632,1.025636 -0.3703053,1.44942 0.5140488,-0.177947 1.1019668,-0.841224 1.2935528,-1.064223 -0.05642,0.239005 -0.340145,0.96764 -0.333833,1.338451 0.521919,-0.180421 1.10323,-0.850813 1.29352,-1.077274 0.03879,0.01145 0.08165,0.02892 0.119957,0.03919 -0.04365,0.132461 -0.348624,0.706592 -0.385933,0.868361 0.822078,0.03392 1.555775,-0.59984 1.773369,-0.868361 2.485654,-1.609594 4.264118,-4.967046 4.642166,-6.8163388 C 18.039313,4.2671626 17.72573,3.6593603 17.00506,3.4088713 16.539485,3.247096 13.448656,3.2075309 10.443491,3.2585179 c -0.8499128,0 -2.1415955,-2.35063269 -3.0930276,-3.21231383 -0.012179,0 -0.021446,-0.0034931 -0.031301,0 z M 11.987708,5.8178633 C 15.202231,5.8123128 14.0732,12.75477 9.4162336,6.8951515 10.464743,6.1183907 11.320481,5.8191944 11.987708,5.8178633 Z"
     style="fill:#ffffff;fill-opacity:1;stroke:none;stroke-width:0.18674102"
     inkscape:export-filename="/home/avihai/g7029.png"
     inkscape:export-xdpi="90"
     inkscape:export-ydpi="90" />
</svg>
