<?xml version="1.0" encoding="UTF-8" standalone="no"?>
<!-- Created with Inkscape (http://www.inkscape.org/) -->

<svg
   xmlns:dc="http://purl.org/dc/elements/1.1/"
   xmlns:cc="http://creativecommons.org/ns#"
   xmlns:rdf="http://www.w3.org/1999/02/22-rdf-syntax-ns#"
   xmlns:svg="http://www.w3.org/2000/svg"
   xmlns="http://www.w3.org/2000/svg"
   xmlns:sodipodi="http://sodipodi.sourceforge.net/DTD/sodipodi-0.dtd"
   xmlns:inkscape="http://www.inkscape.org/namespaces/inkscape"
   version="1.1"
   id="svg4747"
   width="50"
   height="50"
   viewBox="0 0 50 50"
   sodipodi:docname="eddie-white_50x50.svg"
   inkscape:export-filename="C:\Users\Tim.DESKTOP-9OHFD6T\Eddie-White_100x100.png"
   inkscape:export-xdpi="54.860001"
   inkscape:export-ydpi="54.860001"
   inkscape:version="0.92.4 (5da689c313, 2019-01-14)">
  <metadata
     id="metadata4753">
    <rdf:RDF>
      <cc:Work
         rdf:about="">
        <dc:format>image/svg+xml</dc:format>
        <dc:type
           rdf:resource="http://purl.org/dc/dcmitype/StillImage" />
        <dc:title></dc:title>
      </cc:Work>
    </rdf:RDF>
  </metadata>
  <defs
     id="defs4751" />
  <sodipodi:namedview
     pagecolor="#ffffff"
     bordercolor="#666666"
     borderopacity="1"
     objecttolerance="10"
     gridtolerance="10"
     guidetolerance="10"
     inkscape:pageopacity="0"
     inkscape:pageshadow="2"
     inkscape:window-width="1920"
     inkscape:window-height="1017"
     id="namedview4749"
     showgrid="false"
     inkscape:zoom="256"
     inkscape:cx="49.707576"
     inkscape:cy="49.37304"
     inkscape:window-x="1912"
     inkscape:window-y="-8"
     inkscape:window-maximized="1"
     inkscape:current-layer="svg4747" />
  <path
     inkscape:connector-curvature="0"
     id="path6964"
     d="M 20.315882,0.04338968 C 19.461141,0.27519295 21.836552,4.3518094 19.879562,7.8686834 19.267899,8.40886 18.355728,8.8927466 17.5389,8.6328749 15.171829,7.7859913 13.03831,6.3364953 10.57525,5.7393532 c -3.9374456,-0.3267716 0.697999,1.5215186 0.378011,6.9517898 -0.605582,1.690793 -1.0640587,3.02004 -1.381121,4.13099 -1.931134,4.345455 -7.7374244,20.378559 -8.92631864,24.785818 -1.12834333,4.182617 -0.75266776,6.439194 1.19202764,7.770724 0.5425136,0.371856 6.2113391,0.57259 17.663675,0.582181 h 16.878628 l 1.337519,-3.639623 1.293945,-3.457725 0.04324,-0.05412 c 0.0078,-0.0097 -0.0078,-0.05413 0,-0.0727 0.364015,-0.766163 1.227202,-2.950566 1.162998,-4.640449 -1.795267,0.685136 -3.36112,2.591316 -3.779919,3.384716 -0.03813,-0.630388 0.497417,-2.362103 0.261862,-3.202934 -1.205371,1.001458 -2.530675,2.964501 -2.893089,3.748892 -0.04327,-0.61655 0.489872,-2.334463 0.261445,-3.148141 -0.860974,0.715175 -2.091524,2.409267 -2.500562,3.020737 -0.05806,-0.552158 0.457431,-2.194705 0.261444,-2.893485 -1.055824,0.877384 -2.352812,2.724092 -2.747563,3.43944 h -0.668735 c -4.064284,-0.09602 -10.1767,1.901455 -11.296059,-7.151845 -1.418194,-11.470444 4.243631,-5.79835 10.438293,-3.603126 -0.201702,0.706201 -1.052088,2.858711 -1.032135,4.039905 1.432786,-0.495984 3.071462,-2.344709 3.605463,-2.966262 -0.157256,0.666168 -0.948071,2.697061 -0.930477,3.730606 1.454722,-0.502879 3.074985,-2.371434 3.605372,-3.002638 0.108114,0.03191 0.227579,0.08061 0.334351,0.109224 -0.121665,0.369204 -0.971704,1.969454 -1.075694,2.420345 2.291341,0.09455 4.336344,-1.671907 4.942835,-2.420345 6.928155,-4.486355 11.885191,-13.844437 12.938908,-18.99889 0.251292,-2.794072 -0.622743,-4.488176 -2.631437,-5.1863523 -1.297677,-0.4509092 -9.91261,-0.5611862 -18.288779,-0.4190729 -2.368925,0 -5.969177,-6.5518183 -8.621064,-8.9535453 -0.03393,0 -0.05978,-0.0097283 -0.08725,0 z M 33.327508,16.130565 c 8.959702,-0.01533 5.812802,19.334943 -7.16736,3.002679 2.922464,-2.16503 5.307626,-2.998969 7.16736,-3.002679 z"
     style="fill:#ffffff;fill-opacity:1;stroke:none;stroke-width:0.52049524"
     inkscape:export-filename="/home/avihai/g7029.png"
     inkscape:export-xdpi="90"
     inkscape:export-ydpi="90" />
</svg>
