<?xml version="1.0" encoding="UTF-8" standalone="no"?>
<svg
   viewBox="0 0 100 125"
   x="0px"
   y="0px"
   version="1.1"
   id="svg151"
   xmlns="http://www.w3.org/2000/svg"
   xmlns:svg="http://www.w3.org/2000/svg">
  <defs
     id="defs155" />
  <g
     data-name="Layer 2"
     id="g149"
     style="stroke-width:1.11881692;stroke-miterlimit:4;stroke-dasharray:none"
     transform="matrix(0.83600318,0,0,0.84436403,8.3635997,8.0630053)">
    <path
       d="m 92.087,85.3913 a 1.91314,1.91314 0 0 0 -1.913,1.913 v 2.86957 h -2.86965 a 1.913045,1.913045 0 1 0 0,3.82609 H 92.087 A 1.91314,1.91314 0 0 0 94,92.087 V 87.30435 A 1.91314,1.91314 0 0 0 92.087,85.3913 Z"
       id="path83"
       style="stroke-width:1.11881692;stroke-miterlimit:4;stroke-dasharray:none" />
    <path
       d="m 73.85,94 h 6.11557 a 1.913045,1.913045 0 1 0 0,-3.82609 H 73.85 A 1.913045,1.913045 0 0 0 73.85,94 Z"
       id="path85"
       style="stroke-width:1.11881692;stroke-miterlimit:4;stroke-dasharray:none" />
    <path
       d="m 60.3961,94 h 6.11557 a 1.913045,1.913045 0 0 0 0,-3.82609 H 60.3961 a 1.913045,1.913045 0 0 0 0,3.82609 z"
       id="path87"
       style="stroke-width:1.11881692;stroke-miterlimit:4;stroke-dasharray:none" />
    <path
       d="m 33.48832,94 h 6.11558 a 1.913045,1.913045 0 0 0 0,-3.82609 h -6.11558 a 1.913045,1.913045 0 0 0 0,3.82609 z"
       id="path89"
       style="stroke-width:1.11881692;stroke-miterlimit:4;stroke-dasharray:none" />
    <path
       d="m 46.94221,94 h 6.11557 a 1.913045,1.913045 0 1 0 0,-3.82609 H 51.913 v -2.86956 a 1.913045,1.913045 0 1 0 -3.82609,0 v 2.86957 h -1.1447 a 1.913045,1.913045 0 1 0 0,3.82609 z"
       id="path91"
       style="stroke-width:1.11881692;stroke-miterlimit:4;stroke-dasharray:none" />
    <path
       d="m 26.14954,90.17391 h -6.11511 a 1.913045,1.913045 0 0 0 0,3.82609 h 6.11511 a 1.913045,1.913045 0 1 0 0,-3.82609 z"
       id="path93"
       style="stroke-width:1.11881692;stroke-miterlimit:4;stroke-dasharray:none" />
    <path
       d="m 7.913,94 h 4.78261 a 1.913045,1.913045 0 1 0 0,-3.82609 H 9.82609 V 87.30435 A 1.913045,1.913045 0 1 0 6,87.30435 V 92.087 A 1.91314,1.91314 0 0 0 7.913,94 Z"
       id="path95"
       style="stroke-width:1.11881692;stroke-miterlimit:4;stroke-dasharray:none" />
    <path
       d="m 7.913,81.87908 a 1.91314,1.91314 0 0 0 1.913,-1.913 v -6.11562 a 1.913045,1.913045 0 1 0 -3.82609,0 V 79.966 A 1.91314,1.91314 0 0 0 7.913,81.87908 Z"
       id="path97"
       style="stroke-width:1.11881692;stroke-miterlimit:4;stroke-dasharray:none" />
    <path
       d="m 7.913,68.42519 a 1.91314,1.91314 0 0 0 1.913,-1.913 v -6.11562 a 1.913045,1.913045 0 0 0 -3.82609,0 v 6.11557 A 1.91314,1.91314 0 0 0 7.913,68.42519 Z"
       id="path99"
       style="stroke-width:1.11881692;stroke-miterlimit:4;stroke-dasharray:none" />
    <path
       d="m 7.913,54.97036 a 1.91314,1.91314 0 0 0 1.913,-1.913 V 51.913 h 2.86957 a 1.913045,1.913045 0 1 0 0,-3.82609 H 9.82609 v -1.14516 a 1.913045,1.913045 0 0 0 -3.82609,0 v 6.11557 a 1.91314,1.91314 0 0 0 1.913,1.91304 z"
       id="path101"
       style="stroke-width:1.11881692;stroke-miterlimit:4;stroke-dasharray:none" />
    <path
       d="m 7.913,41.51647 a 1.91314,1.91314 0 0 0 1.913,-1.913 v -6.11561 a 1.913045,1.913045 0 1 0 -3.82609,0 v 6.11557 A 1.91314,1.91314 0 0 0 7.913,41.51647 Z"
       id="path103"
       style="stroke-width:1.11881692;stroke-miterlimit:4;stroke-dasharray:none" />
    <path
       d="m 7.913,28.06258 a 1.91314,1.91314 0 0 0 1.913,-1.913 V 20.034 a 1.913,1.913 0 1 0 -3.826,0 v 6.11557 a 1.91314,1.91314 0 0 0 1.913,1.91301 z"
       id="path105"
       style="stroke-width:1.11881692;stroke-miterlimit:4;stroke-dasharray:none" />
    <path
       d="m 7.913,14.6087 a 1.91314,1.91314 0 0 0 1.913,-1.913 V 9.82609 h 2.86957 A 1.913045,1.913045 0 1 0 12.69557,6 H 7.913 A 1.91314,1.91314 0 0 0 6,7.913 v 4.78261 a 1.91314,1.91314 0 0 0 1.913,1.91309 z"
       id="path107"
       style="stroke-width:1.11881692;stroke-miterlimit:4;stroke-dasharray:none" />
    <path
       d="M 33.48832,9.82609 H 39.6039 A 1.913045,1.913045 0 1 0 39.6039,6 h -6.11558 a 1.913045,1.913045 0 1 0 0,3.82609 z"
       id="path109"
       style="stroke-width:1.11881692;stroke-miterlimit:4;stroke-dasharray:none" />
    <path
       d="m 26.15,6 h -6.11557 a 1.913045,1.913045 0 1 0 0,3.82609 H 26.15 A 1.913045,1.913045 0 1 0 26.15,6 Z"
       id="path111"
       style="stroke-width:1.11881692;stroke-miterlimit:4;stroke-dasharray:none" />
    <path
       d="m 60.3961,9.82609 h 6.11557 A 1.913045,1.913045 0 1 0 66.51167,6 H 60.3961 a 1.913045,1.913045 0 1 0 0,3.82609 z"
       id="path113"
       style="stroke-width:1.11881692;stroke-miterlimit:4;stroke-dasharray:none" />
    <path
       d="m 73.85046,9.82609 h 6.11511 a 1.913045,1.913045 0 1 0 0,-3.82609 h -6.11511 a 1.913045,1.913045 0 1 0 0,3.82609 z"
       id="path115"
       style="stroke-width:1.11881692;stroke-miterlimit:4;stroke-dasharray:none" />
    <path
       d="m 92.087,6 h -4.78265 a 1.913045,1.913045 0 1 0 0,3.82609 h 2.86957 v 2.86957 a 1.913045,1.913045 0 1 0 3.82609,0 V 7.913 A 1.91314,1.91314 0 0 0 92.087,6 Z"
       id="path117"
       style="stroke-width:1.11881692;stroke-miterlimit:4;stroke-dasharray:none" />
    <path
       d="m 92.087,31.57481 a 1.91314,1.91314 0 0 0 -1.913,1.913 v 6.11557 a 1.913045,1.913045 0 0 0 3.82609,0 V 33.48786 A 1.91314,1.91314 0 0 0 92.087,31.57481 Z"
       id="path119"
       style="stroke-width:1.11881692;stroke-miterlimit:4;stroke-dasharray:none" />
    <path
       d="m 92.087,18.12092 a 1.91314,1.91314 0 0 0 -1.913,1.913 v 6.11557 a 1.913045,1.913045 0 1 0 3.82609,0 V 20.034 A 1.91314,1.91314 0 0 0 92.087,18.12092 Z"
       id="path121"
       style="stroke-width:1.11881692;stroke-miterlimit:4;stroke-dasharray:none" />
    <path
       d="m 92.087,71.93742 a 1.91314,1.91314 0 0 0 -1.913,1.913 V 79.966 a 1.913,1.913 0 1 0 3.826,0 v -6.11554 a 1.91314,1.91314 0 0 0 -1.913,-1.91304 z"
       id="path123"
       style="stroke-width:1.11881692;stroke-miterlimit:4;stroke-dasharray:none" />
    <path
       d="m 92.087,58.48353 a 1.91314,1.91314 0 0 0 -1.913,1.913 v 6.11557 a 1.913045,1.913045 0 0 0 3.82609,0 V 60.39657 A 1.91314,1.91314 0 0 0 92.087,58.48353 Z"
       id="path125"
       style="stroke-width:1.11881692;stroke-miterlimit:4;stroke-dasharray:none" />
    <path
       d="m 92.087,45.02964 a 1.91314,1.91314 0 0 0 -1.913,1.913 V 48.087 h -2.86965 a 1.913045,1.913045 0 1 0 0,3.82609 h 2.86957 v 1.14521 a 1.913045,1.913045 0 0 0 3.82609,0 V 46.94268 A 1.91314,1.91314 0 0 0 92.087,45.02964 Z"
       id="path127"
       style="stroke-width:1.11881692;stroke-miterlimit:4;stroke-dasharray:none" />
    <path
       d="m 51.913,9.82609 h 1.14474 a 1.913045,1.913045 0 1 0 0,-3.82609 h -6.11553 a 1.913045,1.913045 0 1 0 0,3.82609 H 48.087 v 2.86957 a 1.913045,1.913045 0 1 0 3.82609,0 z"
       id="path129"
       style="stroke-width:1.11881692;stroke-miterlimit:4;stroke-dasharray:none" />
    <path
       d="m 51.913,20.034 a 1.913045,1.913045 0 1 0 -3.82609,0 v 6.11557 a 1.913045,1.913045 0 1 0 3.82609,0 z"
       id="path131"
       style="stroke-width:1.11881692;stroke-miterlimit:4;stroke-dasharray:none" />
    <path
       d="m 50,31.57481 a 1.91314,1.91314 0 0 0 -1.913,1.913 v 6.11557 a 1.913045,1.913045 0 0 0 3.82609,0 V 33.48786 A 1.91314,1.91314 0 0 0 50,31.57481 Z"
       id="path133"
       style="stroke-width:1.11881692;stroke-miterlimit:4;stroke-dasharray:none" />
    <path
       d="m 50,71.93742 a 1.91314,1.91314 0 0 0 -1.913,1.913 V 79.966 a 1.913045,1.913045 0 1 0 3.82609,0 V 73.85046 A 1.91314,1.91314 0 0 0 50,71.93742 Z"
       id="path135"
       style="stroke-width:1.11881692;stroke-miterlimit:4;stroke-dasharray:none" />
    <path
       d="m 51.913,60.39657 a 1.913045,1.913045 0 0 0 -3.82609,0 v 6.11557 a 1.913045,1.913045 0 0 0 3.82609,0 z"
       id="path137"
       style="stroke-width:1.11881692;stroke-miterlimit:4;stroke-dasharray:none" />
    <path
       d="m 73.85,51.913 h 6.11557 a 1.913045,1.913045 0 1 0 0,-3.82609 H 73.85 a 1.913045,1.913045 0 0 0 0,3.82609 z"
       id="path139"
       style="stroke-width:1.11881692;stroke-miterlimit:4;stroke-dasharray:none" />
    <path
       d="m 60.3961,51.913 h 6.11557 a 1.913045,1.913045 0 0 0 0,-3.82609 H 60.3961 a 1.913045,1.913045 0 0 0 0,3.82609 z"
       id="path141"
       style="stroke-width:1.11881692;stroke-miterlimit:4;stroke-dasharray:none" />
    <path
       d="m 26.14954,48.087 h -6.11511 a 1.913045,1.913045 0 0 0 0,3.82609 h 6.11511 a 1.913045,1.913045 0 1 0 0,-3.82609 z"
       id="path143"
       style="stroke-width:1.11881692;stroke-miterlimit:4;stroke-dasharray:none" />
    <path
       d="M 46.94221,51.913 H 48.087 v 1.14521 a 1.913045,1.913045 0 0 0 3.82609,0 V 51.913 h 1.14474 a 1.913045,1.913045 0 1 0 0,-3.82609 H 51.913 v -1.14423 a 1.913045,1.913045 0 1 0 -3.82609,0 V 48.087 h -1.1447 a 1.913045,1.913045 0 1 0 0,3.82609 z"
       id="path145"
       style="stroke-width:1.11881692;stroke-miterlimit:4;stroke-dasharray:none" />
    <path
       d="m 33.48832,51.913 h 6.11558 a 1.913045,1.913045 0 0 0 0,-3.82609 h -6.11558 a 1.913045,1.913045 0 0 0 0,3.82609 z"
       id="path147"
       style="stroke-width:1.11881692;stroke-miterlimit:4;stroke-dasharray:none" />
  </g>
  <rect
     style="fill:none;fill-rule:evenodd;stroke:#ffffff;stroke-width:4.78857;stroke-miterlimit:4;stroke-dasharray:none;stroke-opacity:1"
     id="rect259"
     width="83.675209"
     height="84.667084"
     x="8.2430801"
     y="7.7153096" />
</svg>
