<?xml version="1.0" encoding="UTF-8" standalone="no"?>
<svg
   viewBox="0 0 100 125"
   x="0px"
   y="0px"
   version="1.1"
   id="svg151"
   xmlns="http://www.w3.org/2000/svg"
   xmlns:svg="http://www.w3.org/2000/svg">
  <defs
     id="defs155" />
  <g
     data-name="Layer 2"
     id="g149"
     style="stroke-width:1;stroke-miterlimit:4;stroke-dasharray:none">
    <path
       d="M92.087,85.3913a1.91314,1.91314,0,0,0-1.913,1.913v2.86957H87.30435a1.913,1.913,0,1,0,0,3.82609H92.087A1.91314,1.91314,0,0,0,94,92.087V87.30435A1.91314,1.91314,0,0,0,92.087,85.3913Z"
       id="path83"
       style="stroke-width:1;stroke-miterlimit:4;stroke-dasharray:none" />
    <path
       d="M73.85,94h6.11557a1.913,1.913,0,1,0,0-3.82609H73.85A1.913,1.913,0,0,0,73.85,94Z"
       id="path85"
       style="stroke-width:1;stroke-miterlimit:4;stroke-dasharray:none" />
    <path
       d="M60.3961,94h6.11557a1.913,1.913,0,0,0,0-3.82609H60.3961a1.913,1.913,0,0,0,0,3.82609Z"
       id="path87"
       style="stroke-width:1;stroke-miterlimit:4;stroke-dasharray:none" />
    <path
       d="M33.48832,94H39.6039a1.913,1.913,0,0,0,0-3.82609H33.48832a1.913,1.913,0,0,0,0,3.82609Z"
       id="path89"
       style="stroke-width:1;stroke-miterlimit:4;stroke-dasharray:none" />
    <path
       d="M46.94221,94h6.11557a1.913,1.913,0,1,0,0-3.82609H51.913V87.30435a1.913,1.913,0,1,0-3.82609,0v2.86957H46.94221a1.913,1.913,0,1,0,0,3.82609Z"
       id="path91"
       style="stroke-width:1;stroke-miterlimit:4;stroke-dasharray:none" />
    <path
       d="M26.14954,90.17391H20.03443a1.913,1.913,0,0,0,0,3.82609h6.11511a1.913,1.913,0,1,0,0-3.82609Z"
       id="path93"
       style="stroke-width:1;stroke-miterlimit:4;stroke-dasharray:none" />
    <path
       d="M7.913,94h4.78261a1.913,1.913,0,1,0,0-3.82609H9.82609V87.30435a1.913,1.913,0,1,0-3.82609,0V92.087A1.91314,1.91314,0,0,0,7.913,94Z"
       id="path95"
       style="stroke-width:1;stroke-miterlimit:4;stroke-dasharray:none" />
    <path
       d="M7.913,81.87908a1.91314,1.91314,0,0,0,1.913-1.913V73.85046a1.913,1.913,0,1,0-3.82609,0V79.966A1.91314,1.91314,0,0,0,7.913,81.87908Z"
       id="path97"
       style="stroke-width:1;stroke-miterlimit:4;stroke-dasharray:none" />
    <path
       d="M7.913,68.42519a1.91314,1.91314,0,0,0,1.913-1.913V60.39657a1.913,1.913,0,0,0-3.82609,0v6.11557A1.91314,1.91314,0,0,0,7.913,68.42519Z"
       id="path99"
       style="stroke-width:1;stroke-miterlimit:4;stroke-dasharray:none" />
    <path
       d="M7.913,54.97036a1.91314,1.91314,0,0,0,1.913-1.913V51.913h2.86957a1.913,1.913,0,1,0,0-3.82609H9.82609V46.94175a1.913,1.913,0,0,0-3.82609,0v6.11557A1.91314,1.91314,0,0,0,7.913,54.97036Z"
       id="path101"
       style="stroke-width:1;stroke-miterlimit:4;stroke-dasharray:none" />
    <path
       d="M7.913,41.51647a1.91314,1.91314,0,0,0,1.913-1.913V33.48786a1.913,1.913,0,1,0-3.82609,0v6.11557A1.91314,1.91314,0,0,0,7.913,41.51647Z"
       id="path103"
       style="stroke-width:1;stroke-miterlimit:4;stroke-dasharray:none" />
    <path
       d="M7.913,28.06258a1.91314,1.91314,0,0,0,1.913-1.913V20.034A1.913,1.913,0,1,0,6,20.034v6.11557A1.91314,1.91314,0,0,0,7.913,28.06258Z"
       id="path105"
       style="stroke-width:1;stroke-miterlimit:4;stroke-dasharray:none" />
    <path
       d="M7.913,14.6087a1.91314,1.91314,0,0,0,1.913-1.913V9.82609h2.86957a1.913,1.913,0,1,0,0-3.82609H7.913A1.91314,1.91314,0,0,0,6,7.913v4.78261A1.91314,1.91314,0,0,0,7.913,14.6087Z"
       id="path107"
       style="stroke-width:1;stroke-miterlimit:4;stroke-dasharray:none" />
    <path
       d="M33.48832,9.82609H39.6039A1.913,1.913,0,1,0,39.6039,6H33.48832a1.913,1.913,0,1,0,0,3.82609Z"
       id="path109"
       style="stroke-width:1;stroke-miterlimit:4;stroke-dasharray:none" />
    <path
       d="M26.15,6H20.03443a1.913,1.913,0,1,0,0,3.82609H26.15A1.913,1.913,0,1,0,26.15,6Z"
       id="path111"
       style="stroke-width:1;stroke-miterlimit:4;stroke-dasharray:none" />
    <path
       d="M60.3961,9.82609h6.11557a1.913,1.913,0,1,0,0-3.82609H60.3961a1.913,1.913,0,1,0,0,3.82609Z"
       id="path113"
       style="stroke-width:1;stroke-miterlimit:4;stroke-dasharray:none" />
    <path
       d="M73.85046,9.82609h6.11511a1.913,1.913,0,1,0,0-3.82609H73.85046a1.913,1.913,0,1,0,0,3.82609Z"
       id="path115"
       style="stroke-width:1;stroke-miterlimit:4;stroke-dasharray:none" />
    <path
       d="M92.087,6H87.30435a1.913,1.913,0,1,0,0,3.82609h2.86957v2.86957a1.913,1.913,0,1,0,3.82609,0V7.913A1.91314,1.91314,0,0,0,92.087,6Z"
       id="path117"
       style="stroke-width:1;stroke-miterlimit:4;stroke-dasharray:none" />
    <path
       d="M92.087,31.57481a1.91314,1.91314,0,0,0-1.913,1.913v6.11557a1.913,1.913,0,0,0,3.82609,0V33.48786A1.91314,1.91314,0,0,0,92.087,31.57481Z"
       id="path119"
       style="stroke-width:1;stroke-miterlimit:4;stroke-dasharray:none" />
    <path
       d="M92.087,18.12092a1.91314,1.91314,0,0,0-1.913,1.913v6.11557a1.913,1.913,0,1,0,3.82609,0V20.034A1.91314,1.91314,0,0,0,92.087,18.12092Z"
       id="path121"
       style="stroke-width:1;stroke-miterlimit:4;stroke-dasharray:none" />
    <path
       d="M92.087,71.93742a1.91314,1.91314,0,0,0-1.913,1.913V79.966A1.913,1.913,0,1,0,94,79.966V73.85046A1.91314,1.91314,0,0,0,92.087,71.93742Z"
       id="path123"
       style="stroke-width:1;stroke-miterlimit:4;stroke-dasharray:none" />
    <path
       d="M92.087,58.48353a1.91314,1.91314,0,0,0-1.913,1.913v6.11557a1.913,1.913,0,0,0,3.82609,0V60.39657A1.91314,1.91314,0,0,0,92.087,58.48353Z"
       id="path125"
       style="stroke-width:1;stroke-miterlimit:4;stroke-dasharray:none" />
    <path
       d="M92.087,45.02964a1.91314,1.91314,0,0,0-1.913,1.913V48.087H87.30435a1.913,1.913,0,1,0,0,3.82609h2.86957v1.14521a1.913,1.913,0,0,0,3.82609,0V46.94268A1.91314,1.91314,0,0,0,92.087,45.02964Z"
       id="path127"
       style="stroke-width:1;stroke-miterlimit:4;stroke-dasharray:none" />
    <path
       d="M51.913,9.82609h1.14474a1.913,1.913,0,1,0,0-3.82609H46.94221a1.913,1.913,0,1,0,0,3.82609H48.087v2.86957a1.913,1.913,0,1,0,3.82609,0Z"
       id="path129"
       style="stroke-width:1;stroke-miterlimit:4;stroke-dasharray:none" />
    <path
       d="M51.913,20.034a1.913,1.913,0,1,0-3.82609,0v6.11557a1.913,1.913,0,1,0,3.82609,0Z"
       id="path131"
       style="stroke-width:1;stroke-miterlimit:4;stroke-dasharray:none" />
    <path
       d="M50,31.57481a1.91314,1.91314,0,0,0-1.913,1.913v6.11557a1.913,1.913,0,0,0,3.82609,0V33.48786A1.91314,1.91314,0,0,0,50,31.57481Z"
       id="path133"
       style="stroke-width:1;stroke-miterlimit:4;stroke-dasharray:none" />
    <path
       d="M50,71.93742a1.91314,1.91314,0,0,0-1.913,1.913V79.966a1.913,1.913,0,1,0,3.82609,0V73.85046A1.91314,1.91314,0,0,0,50,71.93742Z"
       id="path135"
       style="stroke-width:1;stroke-miterlimit:4;stroke-dasharray:none" />
    <path
       d="M51.913,60.39657a1.913,1.913,0,0,0-3.82609,0v6.11557a1.913,1.913,0,0,0,3.82609,0Z"
       id="path137"
       style="stroke-width:1;stroke-miterlimit:4;stroke-dasharray:none" />
    <path
       d="M73.85,51.913h6.11557a1.913,1.913,0,1,0,0-3.82609H73.85a1.913,1.913,0,0,0,0,3.82609Z"
       id="path139"
       style="stroke-width:1;stroke-miterlimit:4;stroke-dasharray:none" />
    <path
       d="M60.3961,51.913h6.11557a1.913,1.913,0,0,0,0-3.82609H60.3961a1.913,1.913,0,0,0,0,3.82609Z"
       id="path141"
       style="stroke-width:1;stroke-miterlimit:4;stroke-dasharray:none" />
    <path
       d="M26.14954,48.087H20.03443a1.913,1.913,0,0,0,0,3.82609h6.11511a1.913,1.913,0,1,0,0-3.82609Z"
       id="path143"
       style="stroke-width:1;stroke-miterlimit:4;stroke-dasharray:none" />
    <path
       d="M46.94221,51.913H48.087v1.14521a1.913,1.913,0,0,0,3.82609,0V51.913h1.14474a1.913,1.913,0,1,0,0-3.82609H51.913V46.94268a1.913,1.913,0,1,0-3.82609,0V48.087H46.94221a1.913,1.913,0,1,0,0,3.82609Z"
       id="path145"
       style="stroke-width:1;stroke-miterlimit:4;stroke-dasharray:none" />
    <path
       d="M33.48832,51.913H39.6039a1.913,1.913,0,0,0,0-3.82609H33.48832a1.913,1.913,0,0,0,0,3.82609Z"
       id="path147"
       style="stroke-width:1;stroke-miterlimit:4;stroke-dasharray:none" />
  </g>
  <rect
     style="fill:none;fill-rule:evenodd;stroke:#ffffff;stroke-width:3.8226;stroke-miterlimit:4;stroke-dasharray:none;stroke-opacity:1"
     id="rect259"
     width="66.850334"
     height="67.532806"
     x="16.578167"
     y="16.359802" />
</svg>
